<?xml version="1.0" encoding="UTF-8"?>
<!DOCTYPE svg PUBLIC "-//W3C//DTD SVG 1.1//EN" "http://www.w3.org/Graphics/SVG/1.1/DTD/svg11.dtd">
<!-- Creator: CorelDRAW 2021.5 -->
<svg xmlns="http://www.w3.org/2000/svg" xml:space="preserve" width="49.4975mm" height="49.4975mm" version="1.1" style="shape-rendering:geometricPrecision; text-rendering:geometricPrecision; image-rendering:optimizeQuality; fill-rule:evenodd; clip-rule:evenodd"
viewBox="0 0 782.77 782.77"
 xmlns:xlink="http://www.w3.org/1999/xlink"
 xmlns:xodm="http://www.corel.com/coreldraw/odm/2003">
 <defs>
  <style type="text/css">
   <![CDATA[
    .fil120 {fill:#D36603}
    .fil119 {fill:#D46603}
    .fil118 {fill:#D46703}
    .fil117 {fill:#D46803}
    .fil116 {fill:#D56903}
    .fil115 {fill:#D56A03}
    .fil114 {fill:#D66A03}
    .fil113 {fill:#D66B03}
    .fil112 {fill:#D66C03}
    .fil111 {fill:#D76D03}
    .fil110 {fill:#D76D04}
    .fil109 {fill:#D76E04}
    .fil108 {fill:#D76F04}
    .fil107 {fill:#D86F04}
    .fil106 {fill:#D87004}
    .fil105 {fill:#D97104}
    .fil104 {fill:#D97204}
    .fil103 {fill:#D97304}
    .fil102 {fill:#DA7304}
    .fil101 {fill:#DA7404}
    .fil100 {fill:#DA7504}
    .fil99 {fill:#DB7504}
    .fil98 {fill:#DB7604}
    .fil97 {fill:#DB7704}
    .fil96 {fill:#DC7704}
    .fil95 {fill:#DC7804}
    .fil94 {fill:#DC7904}
    .fil93 {fill:#DD7904}
    .fil92 {fill:#DD7A04}
    .fil91 {fill:#DD7B04}
    .fil90 {fill:#DE7B04}
    .fil89 {fill:#DE7C04}
    .fil88 {fill:#DE7D04}
    .fil87 {fill:#DF7D04}
    .fil86 {fill:#DF7E04}
    .fil85 {fill:#DF7F04}
    .fil84 {fill:#E07F04}
    .fil83 {fill:#E08004}
    .fil82 {fill:#E08104}
    .fil81 {fill:#E18104}
    .fil80 {fill:#E18204}
    .fil79 {fill:#E18304}
    .fil78 {fill:#E28404}
    .fil77 {fill:#E28504}
    .fil76 {fill:#E28505}
    .fil75 {fill:#E28605}
    .fil74 {fill:#E38605}
    .fil73 {fill:#E38705}
    .fil72 {fill:#E48805}
    .fil71 {fill:#E48905}
    .fil70 {fill:#E48A05}
    .fil69 {fill:#E58A05}
    .fil68 {fill:#E58B05}
    .fil67 {fill:#E58C05}
    .fil66 {fill:#E68C05}
    .fil65 {fill:#E68D05}
    .fil64 {fill:#E68E05}
    .fil63 {fill:#E78E05}
    .fil62 {fill:#E78F05}
    .fil61 {fill:#E79005}
    .fil60 {fill:#E89005}
    .fil59 {fill:#E89105}
    .fil58 {fill:#E89205}
    .fil57 {fill:#E99205}
    .fil56 {fill:#E99305}
    .fil55 {fill:#E99405}
    .fil54 {fill:#EA9405}
    .fil53 {fill:#EA9505}
    .fil52 {fill:#EA9605}
    .fil51 {fill:#EB9605}
    .fil50 {fill:#EB9705}
    .fil49 {fill:#EB9805}
    .fil48 {fill:#EC9805}
    .fil47 {fill:#EC9905}
    .fil46 {fill:#EC9A05}
    .fil45 {fill:#ED9B05}
    .fil44 {fill:#ED9C05}
    .fil43 {fill:#EE9C05}
    .fil42 {fill:#EE9D05}
    .fil41 {fill:#EE9D06}
    .fil40 {fill:#EE9E06}
    .fil39 {fill:#EF9F06}
    .fil38 {fill:#EFA006}
    .fil37 {fill:#EFA106}
    .fil36 {fill:#F0A106}
    .fil35 {fill:#F0A206}
    .fil34 {fill:#F0A306}
    .fil33 {fill:#F1A306}
    .fil32 {fill:#F1A406}
    .fil31 {fill:#F1A506}
    .fil30 {fill:#F2A506}
    .fil29 {fill:#F2A606}
    .fil28 {fill:#F2A706}
    .fil27 {fill:#F3A706}
    .fil26 {fill:#F3A806}
    .fil25 {fill:#F3A906}
    .fil24 {fill:#F4A906}
    .fil23 {fill:#F4AA06}
    .fil22 {fill:#F4AB06}
    .fil21 {fill:#F5AB06}
    .fil20 {fill:#F5AC06}
    .fil19 {fill:#F5AD06}
    .fil18 {fill:#F6AD06}
    .fil17 {fill:#F6AE06}
    .fil16 {fill:#F6AF06}
    .fil15 {fill:#F7AF06}
    .fil14 {fill:#F7B006}
    .fil13 {fill:#F7B106}
    .fil12 {fill:#F8B206}
    .fil11 {fill:#F8B306}
    .fil10 {fill:#F9B306}
    .fil9 {fill:#F9B406}
    .fil8 {fill:#F9B506}
    .fil7 {fill:#F9B507}
    .fil6 {fill:#FAB607}
    .fil5 {fill:#FAB707}
    .fil4 {fill:#FAB807}
    .fil3 {fill:#FBB807}
    .fil2 {fill:#FBB907}
    .fil1 {fill:#FCBA07}
    .fil0 {fill:#FCBB07}
   ]]>
  </style>
    <clipPath id="id0">
     <path d="M-0 705.28l0 -146.16 223.65 223.65 -146.16 0c-42.62,0 -77.49,-34.87 -77.49,-77.49zm705.28 77.49c42.62,0 77.49,-34.87 77.49,-77.49l0 -34.33 -118.87 -118.87c14.73,-24.94 25.74,-51.47 33.03,-78.79l85.84 85.84 0 -223.65 -167.74 -167.74 -167.74 -167.74 -223.65 0 85.84 85.84 193.72 193.72c41.39,41.39 55.04,100.01 40.95,152.77l-193.72 -193.72 -119.74 -119.74 -27 -27c-2.76,27.7 -14.75,54.65 -35.97,75.86 -21.22,21.22 -48.16,33.2 -75.86,35.97l27 27 119.74 119.74 193.72 193.72c-52.76,14.09 -111.38,0.44 -152.77,-40.95l-193.72 -193.72 -85.84 -85.84 0 223.65 167.74 167.74 167.74 167.74 223.65 0 -85.84 -85.84c27.32,-7.29 53.85,-18.3 78.79,-33.03l118.87 118.87 34.33 0zm77.49 -705.28c0,-42.62 -34.87,-77.49 -77.49,-77.49l-146.16 0 223.65 223.65 0 -146.16zm-759.29 -54.01c30.88,-30.88 80.95,-30.88 111.83,0 30.88,30.88 30.88,80.95 0,111.83 -30.88,30.88 -80.95,30.88 -111.83,0 -30.88,-30.88 -30.88,-80.94 0,-111.83z"/>
    </clipPath>
 </defs>
 <g id="Layer_x0020_1">
  <metadata id="CorelCorpID_0Corel-Layer"/>
  <g>
   <g style="clip-path:url(#id0)">
    <polygon class="fil0" points="1007.15,694.61 1003.65,695.8 690.87,-223.87 694.37,-225.06 "/>
    <polygon id="_1" class="fil0" points="1005.68,695.11 999.58,697.18 686.81,-222.49 692.9,-224.56 "/>
    <polygon id="_2" class="fil1" points="1001.62,696.49 995.52,698.56 682.74,-221.11 688.84,-223.18 "/>
    <polygon id="_3" class="fil1" points="997.55,697.87 991.46,699.94 678.68,-219.73 684.77,-221.8 "/>
    <polygon id="_4" class="fil2" points="993.49,699.25 987.39,701.32 674.61,-218.34 680.71,-220.42 "/>
    <polygon id="_5" class="fil2" points="989.43,700.63 983.33,702.71 670.55,-216.96 676.65,-219.03 "/>
    <polygon id="_6" class="fil2" points="985.36,702.02 979.27,704.09 666.49,-215.58 672.58,-217.65 "/>
    <polygon id="_7" class="fil3" points="981.3,703.4 975.2,705.47 662.42,-214.2 668.52,-216.27 "/>
    <polygon id="_8" class="fil3" points="977.23,704.78 971.14,706.85 658.36,-212.81 664.45,-214.89 "/>
    <polygon id="_9" class="fil4" points="973.17,706.16 967.07,708.24 654.3,-211.43 660.39,-213.51 "/>
    <polygon id="_10" class="fil5" points="969.11,707.54 963.01,709.62 650.23,-210.05 656.33,-212.12 "/>
    <polygon id="_11" class="fil5" points="965.04,708.93 958.95,711 646.17,-208.67 652.26,-210.74 "/>
    <polygon id="_12" class="fil6" points="960.98,710.31 954.88,712.38 642.1,-207.29 648.2,-209.36 "/>
    <polygon id="_13" class="fil6" points="956.92,711.69 950.82,713.76 638.04,-205.91 644.14,-207.98 "/>
    <polygon id="_14" class="fil6" points="952.85,713.07 946.75,715.15 633.98,-204.52 640.07,-206.6 "/>
    <polygon id="_15" class="fil7" points="948.79,714.45 942.69,716.53 629.91,-203.14 636.01,-205.21 "/>
    <polygon id="_16" class="fil8" points="944.72,715.84 938.63,717.91 625.85,-201.76 631.94,-203.83 "/>
    <polygon id="_17" class="fil8" points="940.66,717.22 934.57,719.29 621.79,-200.38 627.88,-202.45 "/>
    <polygon id="_18" class="fil9" points="936.6,718.6 930.5,720.67 617.72,-198.99 623.82,-201.07 "/>
    <polygon id="_19" class="fil9" points="932.53,719.98 926.44,722.06 613.66,-197.61 619.75,-199.69 "/>
    <polygon id="_20" class="fil10" points="928.47,721.36 922.37,723.44 609.59,-196.23 615.69,-198.3 "/>
    <polygon id="_21" class="fil11" points="924.4,722.75 918.31,724.82 605.53,-194.85 611.63,-196.92 "/>
    <polygon id="_22" class="fil11" points="920.34,724.13 914.25,726.2 601.47,-193.47 607.56,-195.54 "/>
    <polygon id="_23" class="fil12" points="916.28,725.51 910.18,727.58 597.4,-192.08 603.5,-194.16 "/>
    <polygon id="_24" class="fil12" points="912.21,726.89 906.12,728.97 593.34,-190.7 599.44,-192.77 "/>
    <polygon id="_25" class="fil12" points="908.15,728.28 902.05,730.35 589.28,-189.32 595.37,-191.39 "/>
    <polygon id="_26" class="fil13" points="904.09,729.66 897.99,731.73 585.21,-187.94 591.31,-190.01 "/>
    <polygon id="_27" class="fil13" points="900.02,731.04 893.93,733.11 581.15,-186.56 587.24,-188.63 "/>
    <polygon id="_28" class="fil14" points="895.96,732.42 889.86,734.5 577.08,-185.17 583.18,-187.25 "/>
    <polygon id="_29" class="fil14" points="891.89,733.8 885.8,735.88 573.02,-183.79 579.12,-185.87 "/>
    <polygon id="_30" class="fil14" points="887.83,735.19 881.74,737.26 568.96,-182.41 575.05,-184.48 "/>
    <polygon id="_31" class="fil15" points="883.77,736.57 877.67,738.64 564.89,-181.03 570.99,-183.1 "/>
    <polygon id="_32" class="fil16" points="879.7,737.95 873.61,740.02 560.83,-179.65 566.93,-181.72 "/>
    <polygon id="_33" class="fil16" points="875.64,739.33 869.54,741.4 556.77,-178.26 562.86,-180.34 "/>
    <polygon id="_34" class="fil17" points="871.58,740.71 865.48,742.79 552.7,-176.88 558.8,-178.95 "/>
    <polygon id="_35" class="fil17" points="867.51,742.1 861.42,744.17 548.64,-175.5 554.73,-177.57 "/>
    <polygon id="_36" class="fil18" points="863.45,743.48 857.35,745.55 544.57,-174.12 550.67,-176.19 "/>
    <polygon id="_37" class="fil19" points="859.38,744.86 853.29,746.93 540.51,-172.73 546.61,-174.81 "/>
    <polygon id="_38" class="fil19" points="855.32,746.24 849.23,748.32 536.45,-171.35 542.54,-173.43 "/>
    <polygon id="_39" class="fil20" points="851.26,747.62 845.16,749.7 532.38,-169.97 538.48,-172.04 "/>
    <polygon id="_40" class="fil20" points="847.19,749.01 841.1,751.08 528.32,-168.59 534.42,-170.66 "/>
    <polygon id="_41" class="fil20" points="843.13,750.39 837.03,752.46 524.26,-167.21 530.35,-169.28 "/>
    <polygon id="_42" class="fil21" points="839.07,751.77 832.97,753.84 520.19,-165.83 526.29,-167.9 "/>
    <polygon id="_43" class="fil22" points="835,753.15 828.91,755.23 516.13,-164.44 522.22,-166.52 "/>
    <polygon id="_44" class="fil23" points="830.94,754.54 824.84,756.61 512.07,-163.06 518.16,-165.13 "/>
    <polygon id="_45" class="fil23" points="826.88,755.92 820.78,757.99 508,-161.68 514.1,-163.75 "/>
    <polygon id="_46" class="fil23" points="822.81,757.3 816.72,759.37 503.94,-160.3 510.03,-162.37 "/>
    <polygon id="_47" class="fil24" points="818.75,758.68 812.65,760.75 499.87,-158.91 505.97,-160.99 "/>
    <polygon id="_48" class="fil25" points="814.68,760.06 808.59,762.14 495.81,-157.53 501.91,-159.61 "/>
    <polygon id="_49" class="fil25" points="810.62,761.44 804.52,763.52 491.75,-156.15 497.84,-158.22 "/>
    <polygon id="_50" class="fil26" points="806.56,762.83 800.46,764.9 487.68,-154.77 493.78,-156.84 "/>
    <polygon id="_51" class="fil26" points="802.49,764.21 796.4,766.28 483.62,-153.39 489.71,-155.46 "/>
    <polygon id="_52" class="fil27" points="798.43,765.59 792.33,767.66 479.56,-152 485.65,-154.08 "/>
    <polygon id="_53" class="fil27" points="794.37,766.97 788.27,769.05 475.49,-150.62 481.59,-152.69 "/>
    <polygon id="_54" class="fil28" points="790.3,768.36 784.21,770.43 471.43,-149.24 477.52,-151.31 "/>
    <polygon id="_55" class="fil29" points="786.24,769.74 780.14,771.81 467.36,-147.86 473.46,-149.93 "/>
    <polygon id="_56" class="fil29" points="782.17,771.12 776.08,773.19 463.3,-146.48 469.4,-148.55 "/>
    <polygon id="_57" class="fil29" points="778.11,772.5 772.01,774.58 459.24,-145.09 465.33,-147.17 "/>
    <polygon id="_58" class="fil30" points="774.05,773.88 767.95,775.96 455.17,-143.71 461.27,-145.79 "/>
    <polygon id="_59" class="fil31" points="769.98,775.27 763.89,777.34 451.11,-142.33 457.2,-144.4 "/>
    <polygon id="_60" class="fil32" points="765.92,776.65 759.82,778.72 447.05,-140.95 453.14,-143.02 "/>
    <polygon id="_61" class="fil32" points="761.86,778.03 755.76,780.1 442.98,-139.57 449.08,-141.64 "/>
    <polygon id="_62" class="fil32" points="757.79,779.41 751.7,781.49 438.92,-138.18 445.01,-140.26 "/>
    <polygon id="_63" class="fil33" points="753.73,780.79 747.63,782.87 434.85,-136.8 440.95,-138.87 "/>
    <polygon id="_64" class="fil33" points="749.66,782.18 743.57,784.25 430.79,-135.42 436.88,-137.49 "/>
    <polygon id="_65" class="fil34" points="745.6,783.56 739.51,785.63 426.73,-134.04 432.82,-136.11 "/>
    <polygon id="_66" class="fil35" points="741.54,784.94 735.44,787.01 422.66,-132.65 428.76,-134.73 "/>
    <polygon id="_67" class="fil35" points="737.47,786.32 731.38,788.4 418.6,-131.27 424.7,-133.35 "/>
    <polygon id="_68" class="fil36" points="733.41,787.7 727.31,789.78 414.53,-129.89 420.63,-131.96 "/>
    <polygon id="_69" class="fil36" points="729.35,789.09 723.25,791.16 410.47,-128.51 416.57,-130.58 "/>
    <polygon id="_70" class="fil37" points="725.28,790.47 719.19,792.54 406.41,-127.13 412.5,-129.2 "/>
    <polygon id="_71" class="fil38" points="721.22,791.85 715.12,793.92 402.34,-125.75 408.44,-127.82 "/>
    <polygon id="_72" class="fil38" points="717.15,793.23 711.06,795.31 398.28,-124.36 404.38,-126.44 "/>
    <polygon id="_73" class="fil39" points="713.09,794.62 707,796.69 394.22,-122.98 400.31,-125.05 "/>
    <polygon id="_74" class="fil39" points="709.03,796 702.93,798.07 390.15,-121.6 396.25,-123.67 "/>
    <polygon id="_75" class="fil39" points="704.96,797.38 698.87,799.45 386.09,-120.22 392.18,-122.29 "/>
    <polygon id="_76" class="fil40" points="700.9,798.76 694.8,800.83 382.02,-118.83 388.12,-120.91 "/>
    <polygon id="_77" class="fil40" points="696.84,800.14 690.74,802.22 377.96,-117.45 384.06,-119.53 "/>
    <polygon id="_78" class="fil40" points="692.77,801.53 686.68,803.6 373.9,-116.07 379.99,-118.14 "/>
    <polygon id="_79" class="fil41" points="688.71,802.91 682.61,804.98 369.83,-114.69 375.93,-116.76 "/>
    <polygon id="_80" class="fil42" points="684.64,804.29 678.55,806.36 365.77,-113.31 371.87,-115.38 "/>
    <polygon id="_81" class="fil43" points="680.58,805.67 674.49,807.74 361.71,-111.92 367.8,-114 "/>
    <polygon id="_82" class="fil44" points="676.52,807.05 670.42,809.13 357.64,-110.54 363.74,-112.61 "/>
    <polygon id="_83" class="fil44" points="672.45,808.44 666.36,810.51 353.58,-109.16 359.67,-111.23 "/>
    <polygon id="_84" class="fil45" points="668.39,809.82 662.29,811.89 349.51,-107.78 355.61,-109.85 "/>
    <polygon id="_85" class="fil45" points="664.33,811.2 658.23,813.27 345.45,-106.4 351.55,-108.47 "/>
    <polygon id="_86" class="fil45" points="660.26,812.58 654.17,814.66 341.39,-105.01 347.48,-107.09 "/>
    <polygon id="_87" class="fil46" points="656.2,813.96 650.1,816.04 337.32,-103.63 343.42,-105.71 "/>
    <polygon id="_88" class="fil46" points="652.14,815.35 646.04,817.42 333.26,-102.25 339.36,-104.32 "/>
    <polygon id="_89" class="fil47" points="648.07,816.73 641.98,818.8 329.2,-100.87 335.29,-102.94 "/>
    <polygon id="_90" class="fil47" points="644.01,818.11 637.91,820.18 325.13,-99.49 331.23,-101.56 "/>
    <polygon id="_91" class="fil47" points="639.94,819.49 633.85,821.57 321.07,-98.1 327.16,-100.18 "/>
    <polygon id="_92" class="fil48" points="635.88,820.88 629.78,822.95 317.01,-96.72 323.1,-98.79 "/>
    <polygon id="_93" class="fil49" points="631.82,822.26 625.72,824.33 312.94,-95.34 319.04,-97.41 "/>
    <polygon id="_94" class="fil49" points="627.75,823.64 621.66,825.71 308.88,-93.96 314.97,-96.03 "/>
    <polygon id="_95" class="fil50" points="623.69,825.02 617.59,827.09 304.81,-92.57 310.91,-94.65 "/>
    <polygon id="_96" class="fil50" points="619.62,826.4 613.53,828.48 300.75,-91.19 306.85,-93.27 "/>
    <polygon id="_97" class="fil51" points="615.56,827.78 609.46,829.86 296.69,-89.81 302.78,-91.88 "/>
    <polygon id="_98" class="fil52" points="611.5,829.17 605.4,831.24 292.62,-88.43 298.72,-90.5 "/>
    <polygon id="_99" class="fil52" points="607.43,830.55 601.34,832.62 288.56,-87.05 294.65,-89.12 "/>
    <polygon id="_100" class="fil53" points="603.37,831.93 597.27,834 284.5,-85.67 290.59,-87.74 "/>
    <polygon id="_101" class="fil53" points="599.31,833.31 593.21,835.39 280.43,-84.28 286.53,-86.36 "/>
    <polygon id="_102" class="fil53" points="595.24,834.7 589.15,836.77 276.37,-82.9 282.46,-84.97 "/>
    <polygon id="_103" class="fil54" points="591.18,836.08 585.08,838.15 272.3,-81.52 278.4,-83.59 "/>
    <polygon id="_104" class="fil55" points="587.11,837.46 581.02,839.53 268.24,-80.14 274.34,-82.21 "/>
    <polygon id="_105" class="fil56" points="583.05,838.84 576.95,840.92 264.18,-78.75 270.27,-80.83 "/>
    <polygon id="_106" class="fil56" points="578.99,840.22 572.89,842.3 260.11,-77.37 266.21,-79.45 "/>
    <polygon id="_107" class="fil56" points="574.92,841.61 568.83,843.68 256.05,-75.99 262.14,-78.06 "/>
    <polygon id="_108" class="fil57" points="570.86,842.99 564.76,845.06 251.99,-74.61 258.08,-76.68 "/>
    <polygon id="_109" class="fil58" points="566.8,844.37 560.7,846.44 247.92,-73.23 254.02,-75.3 "/>
    <polygon id="_110" class="fil58" points="562.73,845.75 556.64,847.82 243.86,-71.84 249.95,-73.92 "/>
    <polygon id="_111" class="fil59" points="558.67,847.13 552.57,849.21 239.79,-70.46 245.89,-72.53 "/>
    <polygon id="_112" class="fil59" points="554.6,848.52 548.51,850.59 235.73,-69.08 241.83,-71.15 "/>
    <polygon id="_113" class="fil60" points="550.54,849.9 544.45,851.97 231.67,-67.7 237.76,-69.77 "/>
    <polygon id="_114" class="fil60" points="546.48,851.28 540.38,853.35 227.6,-66.32 233.7,-68.39 "/>
    <polygon id="_115" class="fil61" points="542.41,852.66 536.32,854.74 223.54,-64.93 229.64,-67.01 "/>
    <polygon id="_116" class="fil62" points="538.35,854.04 532.25,856.12 219.48,-63.55 225.57,-65.63 "/>
    <polygon id="_117" class="fil62" points="534.29,855.43 528.19,857.5 215.41,-62.17 221.51,-64.24 "/>
    <polygon id="_118" class="fil62" points="530.22,856.81 524.13,858.88 211.35,-60.79 217.44,-62.86 "/>
    <polygon id="_119" class="fil63" points="526.16,858.19 520.06,860.26 207.28,-59.41 213.38,-61.48 "/>
    <polygon id="_120" class="fil64" points="522.09,859.57 516,861.65 203.22,-58.02 209.32,-60.1 "/>
    <polygon id="_121" class="fil65" points="518.03,860.96 511.94,863.03 199.16,-56.64 205.25,-58.71 "/>
    <polygon id="_122" class="fil65" points="513.97,862.34 507.87,864.41 195.09,-55.26 201.19,-57.33 "/>
    <polygon id="_123" class="fil65" points="509.9,863.72 503.81,865.79 191.03,-53.88 197.13,-55.95 "/>
    <polygon id="_124" class="fil66" points="505.84,865.1 499.74,867.17 186.97,-52.49 193.06,-54.57 "/>
    <polygon id="_125" class="fil66" points="501.78,866.48 495.68,868.56 182.9,-51.11 189,-53.19 "/>
    <polygon id="_126" class="fil67" points="497.71,867.86 491.62,869.94 178.84,-49.73 184.93,-51.8 "/>
    <polygon id="_127" class="fil68" points="493.65,869.25 487.55,871.32 174.77,-48.35 180.87,-50.42 "/>
    <polygon id="_128" class="fil68" points="489.58,870.63 483.49,872.7 170.71,-46.97 176.81,-49.04 "/>
    <polygon id="_129" class="fil69" points="485.52,872.01 479.43,874.08 166.65,-45.59 172.74,-47.66 "/>
    <polygon id="_130" class="fil69" points="481.46,873.39 475.36,875.47 162.58,-44.2 168.68,-46.28 "/>
    <polygon id="_131" class="fil70" points="477.39,874.78 471.3,876.85 158.52,-42.82 164.62,-44.89 "/>
    <polygon id="_132" class="fil71" points="473.33,876.16 467.23,878.23 154.46,-41.44 160.55,-43.51 "/>
    <polygon id="_133" class="fil71" points="469.27,877.54 463.17,879.61 150.39,-40.06 156.49,-42.13 "/>
    <polygon id="_134" class="fil71" points="465.2,878.92 459.11,881 146.33,-38.67 152.42,-40.75 "/>
    <polygon id="_135" class="fil72" points="461.14,880.3 455.04,882.38 142.27,-37.29 148.36,-39.37 "/>
    <polygon id="_136" class="fil72" points="457.08,881.69 450.98,883.76 138.2,-35.91 144.3,-37.98 "/>
    <polygon id="_137" class="fil73" points="453.01,883.07 446.92,885.14 134.14,-34.53 140.23,-36.6 "/>
    <polygon id="_138" class="fil73" points="448.95,884.45 442.85,886.52 130.07,-33.15 136.17,-35.22 "/>
    <polygon id="_139" class="fil73" points="444.88,885.83 438.79,887.9 126.01,-31.76 132.1,-33.84 "/>
    <polygon id="_140" class="fil74" points="440.82,887.21 434.72,889.29 121.95,-30.38 128.04,-32.45 "/>
    <polygon id="_141" class="fil74" points="436.76,888.6 430.66,890.67 117.88,-29 123.98,-31.07 "/>
    <polygon id="_142" class="fil75" points="432.69,889.98 426.6,892.05 113.82,-27.62 119.91,-29.69 "/>
    <polygon id="_143" class="fil76" points="428.63,891.36 422.53,893.43 109.75,-26.23 115.85,-28.31 "/>
    <polygon id="_144" class="fil77" points="424.57,892.74 418.47,894.82 105.69,-24.85 111.79,-26.93 "/>
    <polygon id="_145" class="fil78" points="420.5,894.12 414.41,896.2 101.63,-23.47 107.72,-25.55 "/>
    <polygon id="_146" class="fil78" points="416.44,895.51 410.34,897.58 97.56,-22.09 103.66,-24.16 "/>
    <polygon id="_147" class="fil78" points="412.37,896.89 406.28,898.96 93.5,-20.71 99.59,-22.78 "/>
    <polygon id="_148" class="fil79" points="408.31,898.27 402.21,900.34 89.44,-19.33 95.53,-21.4 "/>
    <polygon id="_149" class="fil79" points="404.25,899.65 398.15,901.73 85.37,-17.94 91.47,-20.02 "/>
    <polygon id="_150" class="fil79" points="400.18,901.04 394.09,903.11 81.31,-16.56 87.4,-18.63 "/>
    <polygon id="_151" class="fil80" points="396.12,902.42 390.02,904.49 77.24,-15.18 83.34,-17.25 "/>
    <polygon id="_152" class="fil80" points="392.06,903.8 385.96,905.87 73.18,-13.8 79.28,-15.87 "/>
    <polygon id="_153" class="fil81" points="387.99,905.18 381.9,907.25 69.12,-12.41 75.21,-14.49 "/>
    <polygon id="_154" class="fil82" points="383.93,906.56 377.83,908.64 65.05,-11.03 71.15,-13.11 "/>
    <polygon id="_155" class="fil82" points="379.86,907.94 373.77,910.02 60.99,-9.65 67.08,-11.72 "/>
    <polygon id="_156" class="fil83" points="375.8,909.33 369.71,911.4 56.93,-8.27 63.02,-10.34 "/>
    <polygon id="_157" class="fil83" points="371.74,910.71 365.64,912.78 52.86,-6.89 58.96,-8.96 "/>
    <polygon id="_158" class="fil84" points="367.67,912.09 361.58,914.16 48.8,-5.5 54.89,-7.58 "/>
    <polygon id="_159" class="fil85" points="363.61,913.47 357.51,915.55 44.73,-4.12 50.83,-6.19 "/>
    <polygon id="_160" class="fil85" points="359.55,914.86 353.45,916.93 40.67,-2.74 46.77,-4.81 "/>
    <polygon id="_161" class="fil86" points="355.48,916.24 349.39,918.31 36.61,-1.36 42.7,-3.43 "/>
    <polygon id="_162" class="fil86" points="351.42,917.62 345.32,919.69 32.54,0.02 38.64,-2.05 "/>
    <polygon id="_163" class="fil86" points="347.35,919 341.26,921.08 28.48,1.41 34.58,-0.67 "/>
    <polygon id="_164" class="fil87" points="343.29,920.38 337.2,922.46 24.42,2.79 30.51,0.71 "/>
    <polygon id="_165" class="fil88" points="339.23,921.77 333.13,923.84 20.35,4.17 26.45,2.1 "/>
    <polygon id="_166" class="fil89" points="335.16,923.15 329.07,925.22 16.29,5.55 22.38,3.48 "/>
    <polygon id="_167" class="fil89" points="331.1,924.53 325,926.6 12.22,6.93 18.32,4.86 "/>
    <polygon id="_168" class="fil89" points="327.03,925.91 320.94,927.98 8.16,8.32 14.26,6.24 "/>
    <polygon id="_169" class="fil90" points="322.97,927.29 316.88,929.37 4.1,9.7 10.19,7.63 "/>
    <polygon id="_170" class="fil91" points="318.91,928.68 312.81,930.75 0.03,11.08 6.13,9.01 "/>
    <polygon id="_171" class="fil91" points="314.84,930.06 308.75,932.13 -4.03,12.46 2.07,10.39 "/>
    <polygon id="_172" class="fil92" points="310.78,931.44 304.68,933.51 -8.09,13.85 -2,11.77 "/>
    <polygon id="_173" class="fil92" points="306.72,932.82 300.62,934.9 -12.16,15.23 -6.06,13.15 "/>
    <polygon id="_174" class="fil93" points="302.65,934.2 296.56,936.28 -16.22,16.61 -10.13,14.54 "/>
    <polygon id="_175" class="fil93" points="298.59,935.59 292.49,937.66 -20.29,17.99 -14.19,15.92 "/>
    <polygon id="_176" class="fil94" points="294.52,936.97 288.43,939.04 -24.35,19.37 -18.25,17.3 "/>
    <polygon id="_177" class="fil95" points="290.46,938.35 284.37,940.42 -28.41,20.75 -22.32,18.68 "/>
    <polygon id="_178" class="fil95" points="286.4,939.73 280.3,941.81 -32.48,22.14 -26.38,20.06 "/>
    <polygon id="_179" class="fil95" points="282.33,941.12 276.24,943.19 -36.54,23.52 -30.44,21.45 "/>
    <polygon id="_180" class="fil96" points="278.27,942.5 272.17,944.57 -40.6,24.9 -34.51,22.83 "/>
    <polygon id="_181" class="fil97" points="274.21,943.88 268.11,945.95 -44.67,26.28 -38.57,24.21 "/>
    <polygon id="_182" class="fil98" points="270.14,945.26 264.05,947.33 -48.73,27.67 -42.64,25.59 "/>
    <polygon id="_183" class="fil98" points="266.08,946.64 259.98,948.72 -52.79,29.05 -46.7,26.97 "/>
    <polygon id="_184" class="fil98" points="262.02,948.02 255.92,950.1 -56.86,30.43 -50.76,28.36 "/>
    <polygon id="_185" class="fil99" points="257.95,949.41 251.86,951.48 -60.92,31.81 -54.83,29.74 "/>
    <polygon id="_186" class="fil99" points="253.89,950.79 247.79,952.86 -64.99,33.19 -58.89,31.12 "/>
    <polygon id="_187" class="fil100" points="249.82,952.17 243.73,954.24 -69.05,34.58 -62.95,32.5 "/>
    <polygon id="_188" class="fil101" points="245.76,953.55 239.66,955.63 -73.11,35.96 -67.02,33.89 "/>
    <polygon id="_189" class="fil101" points="241.7,954.94 235.6,957.01 -77.18,37.34 -71.08,35.27 "/>
    <polygon id="_190" class="fil102" points="237.63,956.32 231.54,958.39 -81.24,38.72 -75.15,36.65 "/>
    <polygon id="_191" class="fil102" points="233.57,957.7 227.47,959.77 -85.3,40.1 -79.21,38.03 "/>
    <polygon id="_192" class="fil103" points="229.51,959.08 223.41,961.16 -89.37,41.49 -83.27,39.41 "/>
    <polygon id="_193" class="fil104" points="225.44,960.46 219.35,962.54 -93.43,42.87 -87.34,40.79 "/>
    <polygon id="_194" class="fil104" points="221.38,961.85 215.28,963.92 -97.5,44.25 -91.4,42.18 "/>
    <polygon id="_195" class="fil104" points="217.31,963.23 211.22,965.3 -101.56,45.63 -95.46,43.56 "/>
    <polygon id="_196" class="fil105" points="213.25,964.61 207.15,966.68 -105.62,47.01 -99.53,44.94 "/>
    <polygon id="_197" class="fil105" points="209.19,965.99 203.09,968.06 -109.69,48.4 -103.59,46.32 "/>
    <polygon id="_198" class="fil106" points="205.12,967.37 199.03,969.45 -113.75,49.78 -107.66,47.71 "/>
    <polygon id="_199" class="fil106" points="201.06,968.76 194.96,970.83 -117.81,51.16 -111.72,49.09 "/>
    <polygon id="_200" class="fil106" points="197,970.14 190.9,972.21 -121.88,52.54 -115.78,50.47 "/>
    <polygon id="_201" class="fil107" points="192.93,971.52 186.84,973.59 -125.94,53.93 -119.85,51.85 "/>
    <polygon id="_202" class="fil107" points="188.87,972.9 182.77,974.98 -130.01,55.31 -123.91,53.23 "/>
    <polygon id="_203" class="fil108" points="184.8,974.28 178.71,976.36 -134.07,56.69 -127.97,54.62 "/>
    <polygon id="_204" class="fil109" points="180.74,975.67 174.65,977.74 -138.13,58.07 -132.04,56 "/>
    <polygon id="_205" class="fil109" points="176.68,977.05 170.58,979.12 -142.2,59.45 -136.1,57.38 "/>
    <polygon id="_206" class="fil110" points="172.61,978.43 166.52,980.5 -146.26,60.83 -140.16,58.76 "/>
    <polygon id="_207" class="fil110" points="168.55,979.81 162.45,981.89 -150.32,62.22 -144.23,60.14 "/>
    <polygon id="_208" class="fil111" points="164.49,981.2 158.39,983.27 -154.39,63.6 -148.29,61.53 "/>
    <polygon id="_209" class="fil112" points="160.42,982.58 154.33,984.65 -158.45,64.98 -152.36,62.91 "/>
    <polygon id="_210" class="fil112" points="156.36,983.96 150.26,986.03 -162.52,66.36 -156.42,64.29 "/>
    <polygon id="_211" class="fil112" points="152.29,985.34 146.2,987.41 -166.58,67.75 -160.48,65.67 "/>
    <polygon id="_212" class="fil113" points="148.23,986.72 142.14,988.8 -170.64,69.13 -164.55,67.05 "/>
    <polygon id="_213" class="fil113" points="144.17,988.1 138.07,990.18 -174.71,70.51 -168.61,68.44 "/>
    <polygon id="_214" class="fil114" points="140.1,989.49 134.01,991.56 -178.77,71.89 -172.67,69.82 "/>
    <polygon id="_215" class="fil115" points="136.04,990.87 129.94,992.94 -182.84,73.27 -176.74,71.2 "/>
    <polygon id="_216" class="fil115" points="131.98,992.25 125.88,994.32 -186.9,74.66 -180.8,72.58 "/>
    <polygon id="_217" class="fil116" points="127.91,993.63 121.82,995.71 -190.96,76.04 -184.87,73.97 "/>
    <polygon id="_218" class="fil116" points="123.85,995.02 117.75,997.09 -195.03,77.42 -188.93,75.35 "/>
    <polygon id="_219" class="fil116" points="119.78,996.4 113.69,998.47 -199.09,78.8 -192.99,76.73 "/>
    <polygon id="_220" class="fil117" points="115.72,997.78 109.63,999.85 -203.15,80.18 -197.06,78.11 "/>
    <polygon id="_221" class="fil117" points="111.66,999.16 105.56,1001.24 -207.22,81.57 -201.12,79.49 "/>
    <polygon id="_222" class="fil118" points="107.59,1000.54 101.5,1002.62 -211.28,82.95 -205.19,80.88 "/>
    <polygon id="_223" class="fil118" points="103.53,1001.93 97.43,1004 -215.35,84.33 -209.25,82.26 "/>
    <polygon id="_224" class="fil118" points="99.47,1003.31 93.37,1005.38 -219.41,85.71 -213.31,83.64 "/>
    <polygon id="_225" class="fil119" points="95.4,1004.69 89.31,1006.76 -223.47,87.09 -217.38,85.02 "/>
    <polygon id="_226" class="fil120" points="91.34,1006.07 85.24,1008.14 -227.54,88.48 -221.44,86.4 "/>
    <polygon id="_227" class="fil120" points="87.28,1007.45 88.17,1007.15 -224.61,87.48 -225.5,87.79 "/>
   </g>
  </g>
 </g>
</svg>
